<svg width="48" height="48" viewBox="0 0 48 48" fill="none" xmlns="http://www.w3.org/2000/svg">
<path fill-rule="evenodd" clip-rule="evenodd" d="M42.0878 17.5079C40.7401 16.1956 39.1581 15.203 37.4378 14.5702C36.8989 13.703 36.2464 12.8945 35.4869 12.1623C33.0306 9.79198 29.7753 8.51718 26.3284 8.56927C24.3714 8.59955 22.6177 8.61892 21.1012 8.62801C21.1513 7.97396 21.2199 7.0807 21.3379 5.63452L21.4714 4H19.798C17.9491 4 15.7115 4.64618 13.3275 5.86828C11.2685 6.92324 9.15825 8.37971 7.38537 9.96821C5.9777 11.2297 4.39947 12.7885 3.37307 14.7833C2.43627 16.6038 2 18.6713 2 21.2899C2 24.7661 3.38975 28.0339 5.91281 30.4921C7.26055 31.805 8.84186 32.797 10.5622 33.4298C11.1011 34.297 11.7536 35.1055 12.5131 35.8377C14.9694 38.208 18.221 39.4834 21.6716 39.4301C23.6268 39.4005 25.3805 39.3805 26.8988 39.372C26.8487 40.0242 26.7807 40.9157 26.6621 42.3655L26.5286 44H28.202C30.0509 44 32.2885 43.3538 34.6725 42.1317C36.7315 41.0762 38.8418 39.6203 40.6146 38.0318C42.0229 36.7703 43.6005 35.2115 44.6269 33.2167C45.5637 31.3962 46 29.3287 46 26.7101C46 23.2339 44.6102 19.9661 42.0878 17.5079ZM30.8678 42.0542C29.9001 42.3394 29.0022 42.486 28.202 42.486C28.3231 41.0059 28.3917 40.1066 28.4424 39.4495C28.4653 39.1479 28.4844 38.899 28.503 38.6707L28.5678 37.8519L27.7299 37.8544C26.025 37.8598 23.9784 37.881 21.6475 37.9167C18.6152 37.9621 15.756 36.8418 13.5969 34.7591C13.3627 34.5332 13.1403 34.2989 12.9296 34.0572C12.6706 33.7605 12.4296 33.4522 12.2072 33.1343C11.9921 32.8273 11.7944 32.5105 11.614 32.1853C10.7433 30.6156 10.2817 28.8509 10.2817 27.0147V26.2492C10.2817 23.372 11.4199 20.6625 13.4863 18.6186C15.5527 16.5753 18.3075 15.4356 21.2427 15.4095L27.395 15.355L31.6316 15.2793L32.7748 15.2727C34.0187 15.2654 35.2342 15.4513 36.3867 15.8159C36.7457 15.9291 37.0979 16.0593 37.4433 16.2071C37.8024 16.3603 38.1534 16.5317 38.4957 16.7213C39.3991 17.2203 40.2408 17.8435 40.9984 18.5817C43.2273 20.7534 44.4551 23.6403 44.4551 26.7101C44.4551 29.0828 44.0714 30.9335 43.2471 32.5347C42.5204 33.9476 41.421 35.2575 39.5722 36.9145C37.8951 38.4176 35.901 39.7935 33.9563 40.7903C32.8749 41.345 31.8361 41.769 30.8678 42.0542Z" fill="#EF4242"/>
<path fill-rule="evenodd" clip-rule="evenodd" d="M41.4263 24.7721C41.4263 24.3706 41.0944 24.0454 40.6847 24.0454H39.7578V31.0098H41.4263V24.7721Z" fill="#EF4242"/>
<path fill-rule="evenodd" clip-rule="evenodd" d="M40.4993 23.4399H41.4263V22.8948C41.4263 22.4933 41.0944 22.1681 40.6847 22.1681H39.7578V22.7131C39.7578 23.1146 40.0896 23.4399 40.4993 23.4399Z" fill="#EF4242"/>
<path fill-rule="evenodd" clip-rule="evenodd" d="M17.4504 24.0454H16.5234V31.0098H18.1919V24.7721C18.1919 24.3706 17.86 24.0454 17.4504 24.0454Z" fill="#EF4242"/>
<path fill-rule="evenodd" clip-rule="evenodd" d="M17.4504 22.1681H16.5234V22.7131C16.5234 23.1146 16.8553 23.4399 17.265 23.4399H18.1919V22.8948C18.1919 22.4933 17.86 22.1681 17.4504 22.1681Z" fill="#EF4242"/>
<path fill-rule="evenodd" clip-rule="evenodd" d="M14.5456 22.1681H13.6187V31.0099H15.2871V22.8948C15.2871 22.4933 14.9553 22.1681 14.5456 22.1681Z" fill="#EF4242"/>
<path fill-rule="evenodd" clip-rule="evenodd" d="M38.0669 24.0454C37.6572 24.0454 37.3254 24.3706 37.3254 24.7721V28.1181C37.3254 28.2095 37.3155 28.2986 37.2964 28.3845C37.2234 28.7182 37.0164 29.0023 36.7334 29.1791C36.5357 29.3032 36.3015 29.3747 36.05 29.3747C35.9048 29.3747 35.7651 29.3511 35.6353 29.3063C35.3832 29.2215 35.1676 29.061 35.0149 28.8521C34.8635 28.6456 34.7745 28.3918 34.7745 28.1181V24.0454H33.1147V28.1181C33.1147 28.84 33.3836 29.5001 33.8272 30.0063C33.9966 30.2001 34.1918 30.3709 34.4069 30.5151C34.6361 30.6677 34.8889 30.7894 35.1583 30.8736C35.4394 30.962 35.7392 31.0098 36.05 31.0098C37.6708 31.0098 38.9852 29.7151 38.9852 28.1181V24.0454H38.0669Z" fill="#EF4242"/>
<path fill-rule="evenodd" clip-rule="evenodd" d="M22.3625 24.0454C20.7416 24.0454 19.4272 25.3402 19.4272 26.9372V31.0098H21.087V26.9372C21.087 26.2431 21.658 25.6805 22.3625 25.6805C23.0669 25.6805 23.6379 26.2431 23.6379 26.9372V30.2831C23.6379 30.6846 23.9697 31.0098 24.3794 31.0098H25.2977V26.9372C25.2977 25.3402 23.9833 24.0454 22.3625 24.0454Z" fill="#EF4242"/>
<path fill-rule="evenodd" clip-rule="evenodd" d="M29.1602 23.8636C27.4367 23.8636 26.0396 25.1784 26.0396 26.8008V28.1331C26.0396 29.7555 27.4367 31.0703 29.1602 31.0703C29.6731 31.0703 30.1569 30.954 30.5833 30.7475V31.04C30.5833 31.4603 30.3695 31.8376 30.0395 32.0762C29.72 32.1767 29.395 32.2627 29.0656 32.3342C28.5756 32.2809 28.1647 31.9721 27.9817 31.5548H26.2249C26.2911 31.9303 26.4319 32.2803 26.6322 32.5916C26.8138 32.8732 27.0443 33.1227 27.3113 33.3298C27.7136 33.6417 28.1986 33.8567 28.7276 33.9397C28.8864 33.9645 29.0496 33.9772 29.2158 33.9772C29.9616 33.9772 30.6513 33.718 31.1864 33.2862C31.5899 32.9616 31.9057 32.5383 32.0923 32.055C32.2085 31.754 32.2746 31.43 32.2802 31.0909C32.2808 31.0739 32.2808 31.057 32.2808 31.04V26.8008C32.2808 25.1784 30.8836 23.8636 29.1602 23.8636ZM30.5437 28.1331C30.5437 28.852 29.9239 29.4352 29.1602 29.4352C28.3964 29.4352 27.7766 28.852 27.7766 28.1331V26.8008C27.7766 26.082 28.3964 25.4988 29.1602 25.4988C29.9239 25.4988 30.5437 26.082 30.5437 26.8008V28.1331Z" fill="#EF4242"/>
</svg>
