<svg width="256" height="256" viewBox="0 0 256 256" fill="none" xmlns="http://www.w3.org/2000/svg">
<path fill-rule="evenodd" clip-rule="evenodd" d="M118 68.2V101C118 110.389 110.389 118 101 118H45C35.6112 118 28 110.389 28 101V41C28 31.6112 35.6112 24 45 24H101C110.389 24 118 31.6112 118 41V46.9868L78.6328 86.3541L58.6066 66.3279L48 76.9345L78.6327 107.567L88.8858 97.3142L89.2393 96.9606L118 68.2Z" fill="#31BEBE"/>
<path fill-rule="evenodd" clip-rule="evenodd" d="M228 68.2V101C228 110.389 220.389 118 211 118H155C145.611 118 138 110.389 138 101V41C138 31.6112 145.611 24 155 24H211C220.389 24 228 31.6112 228 41V46.9868L188.633 86.3541L168.607 66.3279L158 76.9345L188.633 107.567L198.886 97.3142L199.239 96.9606L228 68.2Z" fill="#FFE287"/>
<path fill-rule="evenodd" clip-rule="evenodd" d="M118 182.2V215C118 224.389 110.389 232 101 232H45C35.6112 232 28 224.389 28 215V155C28 145.611 35.6112 138 45 138H101C110.389 138 118 145.611 118 155V160.987L78.6328 200.354L58.6066 180.328L48 190.935L78.6327 221.567L88.8858 211.314L89.2393 210.961L118 182.2Z" fill="#BEBCDD"/>
<path fill-rule="evenodd" clip-rule="evenodd" d="M228 182.2V215C228 224.389 220.389 232 211 232H155C145.611 232 138 224.389 138 215V155C138 145.611 145.611 138 155 138H211C220.389 138 228 145.611 228 155V160.987L188.633 200.354L168.607 180.328L158 190.935L188.633 221.567L198.886 211.314L199.239 210.961L228 182.2Z" fill="#FF6666"/>
</svg>
