<svg width="256" height="256" viewBox="0 0 256 256" fill="none" xmlns="http://www.w3.org/2000/svg">
<g clip-path="url(#clip0_22_331)">
<path opacity="0.1" d="M209.103 232.276C209.091 236.536 205.64 239.987 201.379 240H54.6206C50.36 239.987 46.9092 236.536 46.8965 232.276V23.7241C46.9092 19.4635 50.36 16.0127 54.6206 16H178.207L209.103 46.8966V232.276Z" fill="#BEBCDD"/>
<path d="M178.207 16V39.1724C178.207 43.4383 181.665 46.8965 185.931 46.8965H209.103L178.207 16Z" fill="#BEBCDD"/>
<path d="M73.9308 66.2069C72.9066 66.2067 71.9245 65.7996 71.2004 65.0753L59.6142 53.4891C58.1065 51.981 58.1065 49.5363 59.6142 48.0281L71.2004 36.4419C72.17 35.438 73.606 35.0353 74.9563 35.3888C76.3065 35.7422 77.3611 36.7967 77.7145 38.147C78.0679 39.4973 77.6653 40.9332 76.6613 41.9029L67.8056 50.7586L76.6613 59.6143C77.7655 60.7189 78.0958 62.3797 77.4982 63.8227C76.9005 65.2656 75.4927 66.2066 73.9308 66.2069Z" fill="#31BEBE"/>
<path d="M120.276 66.2069C118.714 66.2066 117.306 65.2656 116.709 63.8227C116.111 62.3797 116.441 60.7189 117.545 59.6143L126.401 50.7586L117.545 41.9029C116.082 40.3875 116.103 37.9787 117.592 36.489C119.082 34.9992 121.491 34.9783 123.006 36.4419L134.593 48.0281C136.1 49.5363 136.1 51.981 134.593 53.4891L123.006 65.0753C122.282 65.7996 121.3 66.2067 120.276 66.2069Z" fill="#31BEBE"/>
<path d="M89.3793 66.2069C87.9553 66.2057 86.6475 65.421 85.9764 64.1651C85.3052 62.9092 85.3796 61.3859 86.1699 60.2014L101.618 37.029C102.384 35.881 103.704 35.2288 105.081 35.3179C106.458 35.4071 107.683 36.2242 108.294 37.4614C108.906 38.6986 108.81 40.1679 108.045 41.3159L92.5964 64.4883C91.8791 65.5633 90.6717 66.2084 89.3793 66.2069Z" fill="#31BEBE"/>
<path d="M70.0689 85.5172H62.3447C60.2118 85.5172 58.4827 83.7881 58.4827 81.6552C58.4827 79.5222 60.2118 77.7931 62.3447 77.7931H70.0689C72.2018 77.7931 73.9309 79.5222 73.9309 81.6552C73.9309 83.7881 72.2018 85.5172 70.0689 85.5172Z" fill="#FF6666"/>
<path d="M70.0689 104.828H62.3447C60.2118 104.828 58.4827 103.098 58.4827 100.966C58.4827 98.8325 60.2118 97.1034 62.3447 97.1034H70.0689C72.2018 97.1034 73.9309 98.8325 73.9309 100.966C73.9309 103.098 72.2018 104.828 70.0689 104.828Z" fill="#FF6666"/>
<path d="M70.0689 124.138H62.3447C60.2118 124.138 58.4827 122.409 58.4827 120.276C58.4827 118.143 60.2118 116.414 62.3447 116.414H70.0689C72.2018 116.414 73.9309 118.143 73.9309 120.276C73.9309 122.409 72.2018 124.138 70.0689 124.138Z" fill="#FF6666"/>
<path d="M70.0689 143.448H62.3447C60.2118 143.448 58.4827 141.719 58.4827 139.586C58.4827 137.453 60.2118 135.724 62.3447 135.724H70.0689C72.2018 135.724 73.9309 137.453 73.9309 139.586C73.9309 141.719 72.2018 143.448 70.0689 143.448Z" fill="#FF6666"/>
<path d="M70.0689 162.759H62.3447C60.2118 162.759 58.4827 161.029 58.4827 158.897C58.4827 156.764 60.2118 155.034 62.3447 155.034H70.0689C72.2018 155.034 73.9309 156.764 73.9309 158.897C73.9309 161.029 72.2018 162.759 70.0689 162.759Z" fill="#FF6666"/>
<path d="M70.0689 182.069H62.3447C60.2118 182.069 58.4827 180.34 58.4827 178.207C58.4827 176.074 60.2118 174.345 62.3447 174.345H70.0689C72.2018 174.345 73.9309 176.074 73.9309 178.207C73.9309 180.34 72.2018 182.069 70.0689 182.069Z" fill="#FF6666"/>
<path d="M70.0689 201.379H62.3447C60.2118 201.379 58.4827 199.65 58.4827 197.517C58.4827 195.384 60.2118 193.655 62.3447 193.655H70.0689C72.2018 193.655 73.9309 195.384 73.9309 197.517C73.9309 199.65 72.2018 201.379 70.0689 201.379Z" fill="#FF6666"/>
<path d="M70.0689 220.69H62.3447C60.2118 220.69 58.4827 218.961 58.4827 216.828C58.4827 214.695 60.2118 212.966 62.3447 212.966H70.0689C72.2018 212.966 73.9309 214.695 73.9309 216.828C73.9309 218.961 72.2018 220.69 70.0689 220.69Z" fill="#FF6666"/>
<path d="M139.586 85.5172H85.5171C83.3841 85.5172 81.655 83.7881 81.655 81.6552C81.655 79.5222 83.3841 77.7931 85.5171 77.7931H139.586C141.719 77.7931 143.448 79.5222 143.448 81.6552C143.448 83.7881 141.719 85.5172 139.586 85.5172Z" fill="#31BEBE"/>
<path d="M128 104.828H85.5171C83.3841 104.828 81.655 103.098 81.655 100.966C81.655 98.8325 83.3841 97.1034 85.5171 97.1034H128C130.133 97.1034 131.862 98.8325 131.862 100.966C131.862 103.098 130.133 104.828 128 104.828Z" fill="#31BEBE"/>
<path d="M158.896 124.138H85.5171C83.3841 124.138 81.655 122.409 81.655 120.276C81.655 118.143 83.3841 116.414 85.5171 116.414H158.896C161.029 116.414 162.758 118.143 162.758 120.276C162.758 122.409 161.029 124.138 158.896 124.138Z" fill="#FFE287"/>
<path d="M185.931 104.828H143.448C141.315 104.828 139.586 103.098 139.586 100.966C139.586 98.8325 141.315 97.1034 143.448 97.1034H185.931C188.064 97.1034 189.793 98.8325 189.793 100.966C189.793 103.098 188.064 104.828 185.931 104.828Z" fill="#31BEBE"/>
<path d="M193.655 124.138H174.345C172.212 124.138 170.483 122.409 170.483 120.276C170.483 118.143 172.212 116.414 174.345 116.414H193.655C195.788 116.414 197.517 118.143 197.517 120.276C197.517 122.409 195.788 124.138 193.655 124.138Z" fill="#FFE287"/>
<path d="M112.552 143.448H85.5171C83.3841 143.448 81.655 141.719 81.655 139.586C81.655 137.453 83.3841 135.724 85.5171 135.724H112.552C114.685 135.724 116.414 137.453 116.414 139.586C116.414 141.719 114.685 143.448 112.552 143.448Z" fill="#31BEBE"/>
<path d="M131.862 162.759H85.5171C83.3841 162.759 81.655 161.029 81.655 158.897C81.655 156.764 83.3841 155.034 85.5171 155.034H131.862C133.995 155.034 135.724 156.764 135.724 158.897C135.724 161.029 133.995 162.759 131.862 162.759Z" fill="#FFE287"/>
<path d="M128.896 182.069H85.5171C83.3841 182.069 81.655 180.34 81.655 178.207C81.655 176.074 83.3841 174.345 85.5171 174.345H128.896C131.029 174.345 132.758 176.074 132.758 178.207C132.758 180.34 131.029 182.069 128.896 182.069Z" fill="#FFE287"/>
<path d="M104.827 201.379H85.5171C83.3841 201.379 81.655 199.65 81.655 197.517C81.655 195.384 83.3841 193.655 85.5171 193.655H104.827C106.96 193.655 108.69 195.384 108.69 197.517C108.69 199.65 106.96 201.379 104.827 201.379Z" fill="#31BEBE"/>
<path d="M124.138 220.69H85.5171C83.3841 220.69 81.655 218.961 81.655 216.828C81.655 214.695 83.3841 212.966 85.5171 212.966H124.138C126.271 212.966 128 214.695 128 216.828C128 218.961 126.271 220.69 124.138 220.69Z" fill="#FFE287"/>
<path d="M166.621 143.448H128C125.867 143.448 124.138 141.719 124.138 139.586C124.138 137.453 125.867 135.724 128 135.724H166.621C168.754 135.724 170.483 137.453 170.483 139.586C170.483 141.719 168.754 143.448 166.621 143.448Z" fill="#31BEBE"/>
<path d="M193.655 143.448H182.069C179.936 143.448 178.207 141.719 178.207 139.586C178.207 137.453 179.936 135.724 182.069 135.724H193.655C195.788 135.724 197.517 137.453 197.517 139.586C197.517 141.719 195.788 143.448 193.655 143.448Z" fill="#31BEBE"/>
<path d="M156.448 182.069H144.862C142.729 182.069 141 180.34 141 178.207C141 176.074 142.729 174.345 144.862 174.345H156.448C158.581 174.345 160.31 176.074 160.31 178.207C160.31 180.34 158.581 182.069 156.448 182.069Z" fill="#31BEBE"/>
<path d="M164.286 190.411H168.725V211.744C168.725 213.674 168.35 215.324 167.601 216.695C166.861 218.067 165.819 219.115 164.474 219.839C163.129 220.554 161.553 220.912 159.747 220.912C158.085 220.912 156.591 220.603 155.265 219.986C153.949 219.369 152.907 218.473 152.138 217.298C151.379 216.112 151 214.673 151 212.978H155.424C155.424 213.811 155.611 214.531 155.986 215.138C156.37 215.745 156.894 216.22 157.557 216.563C158.229 216.896 158.998 217.063 159.862 217.063C160.804 217.063 161.601 216.862 162.255 216.46C162.917 216.049 163.422 215.446 163.768 214.653C164.113 213.86 164.286 212.89 164.286 211.744V190.411Z" fill="#BEBCDD"/>
<path d="M191.302 198.316C191.149 196.925 190.514 195.847 189.4 195.083C188.286 194.31 186.883 193.923 185.192 193.923C183.982 193.923 182.935 194.119 182.051 194.51C181.167 194.892 180.48 195.421 179.99 196.097C179.51 196.763 179.27 197.522 179.27 198.374C179.27 199.089 179.433 199.706 179.76 200.226C180.096 200.745 180.533 201.181 181.071 201.533C181.618 201.876 182.204 202.165 182.829 202.4C183.453 202.625 184.054 202.811 184.63 202.958L187.512 203.722C188.454 203.957 189.419 204.276 190.409 204.677C191.398 205.079 192.316 205.608 193.161 206.264C194.007 206.92 194.689 207.733 195.207 208.703C195.736 209.673 196 210.833 196 212.185C196 213.889 195.568 215.402 194.703 216.725C193.848 218.047 192.604 219.09 190.971 219.854C189.347 220.618 187.383 221 185.077 221C182.867 221 180.956 220.642 179.342 219.927C177.728 219.212 176.464 218.199 175.552 216.886C174.639 215.564 174.135 213.997 174.039 212.185H178.506C178.592 213.272 178.938 214.178 179.543 214.903C180.158 215.618 180.941 216.152 181.892 216.504C182.853 216.847 183.905 217.018 185.048 217.018C186.307 217.018 187.426 216.818 188.406 216.416C189.395 216.005 190.173 215.437 190.74 214.712C191.307 213.977 191.59 213.12 191.59 212.141C191.59 211.249 191.341 210.52 190.841 209.952C190.351 209.384 189.683 208.913 188.838 208.541C188.002 208.169 187.056 207.841 185.999 207.557L182.512 206.587C180.149 205.931 178.275 204.966 176.892 203.693C175.518 202.42 174.831 200.735 174.831 198.639C174.831 196.905 175.292 195.392 176.215 194.099C177.137 192.806 178.386 191.802 179.961 191.087C181.537 190.362 183.314 190 185.293 190C187.291 190 189.054 190.358 190.582 191.073C192.119 191.788 193.329 192.772 194.213 194.026C195.097 195.27 195.558 196.7 195.597 198.316H191.302Z" fill="#BEBCDD"/>
</g>
<defs>
<clipPath id="clip0_22_331">
<rect width="224" height="224" fill="white" transform="translate(16 16)"/>
</clipPath>
</defs>
</svg>
