<svg width="256" height="256" viewBox="0 0 256 256" fill="none" xmlns="http://www.w3.org/2000/svg">
<path d="M34.5 138.5L99.5333 44.2973C101.447 41.5257 104.295 39.5367 107.556 38.6952L111.103 37.7798C115.437 36.6615 120.044 37.6825 123.499 40.527L208.5 110.5" stroke="#BEBCDD" stroke-width="13"/>
<rect x="30.3406" y="141.553" width="191" height="68" transform="rotate(-9.78985 30.3406 141.553)" fill="#31BEBE"/>
<path fill-rule="evenodd" clip-rule="evenodd" d="M32.8107 126.019C22.4218 127.497 15.1977 137.116 16.6752 147.505L24.2784 200.967C25.7558 211.356 35.3754 218.58 45.7643 217.103L223.971 191.759C234.36 190.281 241.584 180.662 240.107 170.273L232.503 116.811C231.026 106.422 221.406 99.1977 211.018 100.675L32.8107 126.019ZM38.1744 142.427L45.942 197.045L54.1827 195.873L50.7958 172.058L73.9977 168.758L72.9926 161.691L49.7907 164.991L47.424 148.349L73.0528 144.705L72.044 137.611L38.1744 142.427ZM82.1781 136.169L89.9457 190.787L98.1864 189.615L95.247 168.947L106.448 167.354C106.626 167.329 106.803 167.302 106.978 167.275L121.015 186.369L130.402 185.034L115.175 164.679C115.705 164.389 116.208 164.079 116.683 163.749C119.292 161.945 121.11 159.682 122.138 156.96C123.181 154.218 123.465 151.176 122.99 147.833C122.512 144.473 121.397 141.611 119.647 139.248C117.893 136.867 115.508 135.148 112.492 134.089C109.493 133.028 105.878 132.799 101.646 133.401L82.1781 136.169ZM94.2381 161.853L104.692 160.366C107.359 159.987 109.474 159.296 111.036 158.294C112.617 157.289 113.694 156.002 114.269 154.433C114.844 152.864 114.986 151.057 114.696 149.013C114.402 146.95 113.748 145.22 112.733 143.823C111.736 142.423 110.336 141.443 108.533 140.883C106.746 140.303 104.492 140.206 101.771 140.593L91.4239 142.065L94.2381 161.853ZM138.35 183.903L130.582 129.285L164.825 124.416L165.834 131.51L139.832 135.207L142.198 151.849L166.414 148.405L167.419 155.472L143.204 158.916L145.582 175.638L171.904 171.894L172.913 178.988L138.35 183.903ZM175.833 122.85L183.6 177.468L218.163 172.553L217.154 165.459L190.832 169.202L188.454 152.481L212.669 149.037L211.664 141.97L187.449 145.413L185.082 128.772L211.084 125.074L210.076 117.98L175.833 122.85Z" fill="#FFE287"/>
<circle cx="114" cy="48" r="21" fill="#6890B5"/>
</svg>
