<svg width="256" height="256" viewBox="0 0 256 256" fill="none" xmlns="http://www.w3.org/2000/svg">
<path opacity="0.1" d="M128 199.39C167.428 199.39 199.39 167.428 199.39 128C199.39 88.5724 167.428 56.61 128 56.61C88.5725 56.61 56.6101 88.5724 56.6101 128C56.6101 167.428 88.5725 199.39 128 199.39Z" fill="white"/>
<path opacity="0.3" d="M199.39 128C199.39 88.5723 167.428 56.61 128 56.61V199.39C167.428 199.39 199.39 167.428 199.39 128Z" fill="white"/>
<path d="M24.2665 153.123C22.2021 144.756 21.1556 136.164 21.1556 127.584C21.1556 68.8854 68.9933 21.1309 127.794 21.1309C160.844 21.1309 191.981 36.6853 212.028 62.4879L200.191 61.454C196.289 61.12 192.864 63.9895 192.523 67.8769C192.182 71.7643 195.063 75.1911 198.957 75.5316L225.658 77.8637C225.868 77.8816 226.077 77.891 226.284 77.891C229.913 77.891 233.004 75.1185 233.327 71.4412L235.663 44.7865C236.003 40.8991 233.123 37.4724 229.228 37.1318C225.332 36.7936 221.901 39.6674 221.56 43.5548L220.913 50.9457C211.954 40.0932 201.143 30.82 188.976 23.6467C170.507 12.756 149.351 7 127.794 7C95.5288 7 65.1949 19.5431 42.3794 42.3179C19.5649 65.0931 7 95.3743 7 127.584C7 137.301 8.18482 147.031 10.5219 156.502C11.317 159.724 14.2075 161.88 17.3888 161.88C17.9493 161.88 18.5188 161.813 19.087 161.673C22.8821 160.74 25.2012 156.912 24.2665 153.123Z" fill="#FFE287"/>
<path d="M245.478 99.498C244.543 95.7091 240.707 93.3926 236.914 94.3271C233.118 95.2597 230.799 99.0878 231.734 102.877C233.798 111.244 234.844 119.837 234.844 128.416C234.844 187.115 187.007 234.869 128.206 234.869C95.1549 234.869 64.0187 219.315 43.9716 193.512L55.8089 194.547C59.7041 194.881 63.1354 192.011 63.477 188.124C63.8177 184.236 60.937 180.81 57.0428 180.469L30.3416 178.137C26.4389 177.804 23.0147 180.672 22.6736 184.56L20.3374 211.214C19.9967 215.102 22.8774 218.529 26.7716 218.869C26.9816 218.887 27.1901 218.896 27.3968 218.896C31.0263 218.896 34.1169 216.124 34.4397 212.447L35.0885 205.046C44.0475 215.901 54.8553 225.181 67.0239 232.355C85.4927 243.244 106.649 249 128.206 249C160.471 249 190.805 236.457 213.621 213.682C236.435 190.907 249 160.625 249 128.416C249 118.699 247.815 108.97 245.478 99.498Z" fill="#FFE287"/>
<path d="M162.496 82.236L169.14 70.7088C165.465 68.0555 161.518 65.7571 157.345 63.87L150.694 75.4104C148.812 78.6748 149.929 82.8494 153.188 84.7342C156.447 86.6195 160.614 85.5005 162.496 82.236Z" fill="#BEBCDD"/>
<path d="M184.87 135.26H199.03C199.267 132.872 199.39 130.45 199.39 128C199.39 125.549 199.267 123.128 199.03 120.74H184.87C180.861 120.74 177.61 123.991 177.61 128C177.61 132.009 180.861 135.26 184.87 135.26Z" fill="#BEBCDD"/>
<path d="M71.1303 120.74H56.9707C56.7335 123.128 56.6101 125.549 56.6101 128C56.6101 130.45 56.7335 132.872 56.9707 135.26H71.1303C75.1396 135.26 78.3901 132.009 78.3901 128C78.3901 123.991 75.1396 120.74 71.1303 120.74Z" fill="#BEBCDD"/>
<path d="M180.59 105.306L192.13 98.6546C190.243 94.4817 187.945 90.5346 185.291 86.86L173.764 93.5037C170.499 95.3852 169.381 99.5527 171.266 102.812C173.15 106.071 177.325 107.188 180.59 105.306Z" fill="#BEBCDD"/>
<path d="M75.4106 150.694L63.8701 157.345C65.7572 161.518 68.0556 165.465 70.709 169.14L82.2363 162.496C85.5008 160.615 86.6193 156.447 84.7345 153.188C82.8497 149.929 78.6751 148.812 75.4106 150.694Z" fill="#BEBCDD"/>
<path d="M93.5038 173.764L86.8601 185.291C90.5347 187.944 94.4818 190.243 98.6547 192.13L105.306 180.59C107.188 177.325 106.071 173.15 102.812 171.266C99.5528 169.381 95.3853 170.499 93.5038 173.764Z" fill="#BEBCDD"/>
<path d="M135.09 71.2813V57.4532C132.758 57.2216 130.393 57.1011 128 57.1011C125.607 57.1011 123.242 57.2216 120.91 57.4532V71.2813C120.91 75.1967 124.085 78.3711 128 78.3711C131.915 78.3711 135.09 75.1967 135.09 71.2813Z" fill="#BEBCDD"/>
<path d="M120.91 184.719V198.547C123.242 198.778 125.607 198.899 128 198.899C130.393 198.899 132.758 198.778 135.09 198.547V184.719C135.09 180.803 131.915 177.629 128 177.629C124.085 177.629 120.91 180.803 120.91 184.719Z" fill="#BEBCDD"/>
<path d="M105.78 75.3352L98.8597 63.3482C94.5179 65.3083 90.411 67.6957 86.5876 70.4517L93.5002 82.4251C95.458 85.8159 99.7941 86.9777 103.185 85.02C106.576 83.0622 107.738 78.7261 105.78 75.3352Z" fill="#BEBCDD"/>
<path d="M150.694 180.59L157.345 192.13C161.518 190.243 165.465 187.944 169.14 185.291L162.496 173.764C160.614 170.499 156.447 169.381 153.188 171.266C149.929 173.15 148.812 177.325 150.694 180.59Z" fill="#BEBCDD"/>
<path d="M82.2363 93.5037L70.709 86.86C68.0556 90.5346 65.7572 94.4817 63.8701 98.6546L75.4106 105.306C78.6751 107.188 82.8497 106.071 84.7345 102.812C86.6193 99.5527 85.5008 95.3852 82.2363 93.5037Z" fill="#BEBCDD"/>
<path d="M173.764 162.496L185.291 169.14C187.945 165.465 190.243 161.518 192.13 157.345L180.59 150.694C177.325 148.812 173.15 149.929 171.266 153.188C169.381 156.447 170.499 160.615 173.764 162.496Z" fill="#BEBCDD"/>
<path d="M128.227 135.26H104.783C100.899 135.26 97.75 132.1 97.75 128.202C97.75 124.304 100.899 121.143 104.783 121.143H121.194V99.9683C121.194 96.0703 124.343 92.91 128.227 92.91C132.111 92.91 135.26 96.0703 135.26 99.9683V128.202C135.26 132.1 132.111 135.26 128.227 135.26Z" fill="#31BEBE"/>
<path d="M212.073 62.8784L200.259 61.8372C196.364 61.5009 192.946 64.3906 192.606 68.3054C192.266 72.2202 195.141 75.671 199.027 76.014L225.678 78.3625C225.887 78.3805 226.095 78.39 226.302 78.39C229.924 78.39 233.009 75.598 233.331 71.8948L235.663 45.0525C236.003 41.1377 233.128 37.6869 229.241 37.3439C225.352 37.0033 221.927 39.8973 221.587 43.8121L220.941 51.255C212 40.3261 201.209 30.9877 189.065 23.7639C170.631 12.7965 149.516 7 128 7V21.2304C160.987 21.2304 192.064 36.8942 212.073 62.8784Z" fill="#FFE287"/>
<path d="M236.893 94.3271C233.091 95.2598 230.768 99.0878 231.704 102.877C233.772 111.244 234.82 119.836 234.82 128.416C234.82 187.115 186.901 234.869 128 234.869V249C160.32 249 190.706 236.457 213.56 213.682C236.414 190.906 249 160.625 249 128.416C249 118.699 247.813 108.969 245.472 99.4976C244.536 95.7087 240.693 93.3926 236.893 94.3271Z" fill="#FFE287"/>
<path d="M128 78.3711C131.915 78.3711 135.09 75.1967 135.09 71.2813V57.4532C132.758 57.2216 130.393 57.1011 128 57.1011V78.3711Z" fill="#BEBCDD"/>
<path d="M128 177.629V198.898C130.393 198.898 132.758 198.778 135.09 198.546V184.719C135.09 180.803 131.915 177.629 128 177.629Z" fill="#BEBCDD"/>
<path d="M135.26 128.202V99.9683C135.26 96.0703 132.009 92.91 128 92.91V135.26C132.009 135.26 135.26 132.1 135.26 128.202Z" fill="#279696"/>
<path d="M128 50.56C85.2996 50.56 50.5601 85.2996 50.5601 128C50.5601 170.7 85.2996 205.44 128 205.44C170.7 205.44 205.44 170.7 205.44 128C205.44 85.2996 170.7 50.56 128 50.56ZM128 191.36C93.0634 191.36 64.6401 162.937 64.6401 128C64.6401 93.0633 93.0634 64.64 128 64.64C162.937 64.64 191.36 93.0633 191.36 128C191.36 162.937 162.937 191.36 128 191.36Z" fill="#F58E8E"/>
<path d="M128 50.56V64.64C162.937 64.64 191.36 93.0633 191.36 128C191.36 162.937 162.937 191.36 128 191.36V205.44C170.7 205.44 205.44 170.7 205.44 128C205.44 85.2996 170.7 50.56 128 50.56Z" fill="#FF6666"/>
</svg>
