<svg width="256" height="256" viewBox="0 0 256 256" fill="none" xmlns="http://www.w3.org/2000/svg">
<rect x="83.9834" y="126.553" width="27.4532" height="18.637" transform="rotate(-45 83.9834 126.553)" fill="#FF6666"/>
<path d="M244.926 239.447L205.002 199.522C177.644 172.165 133.289 172.165 105.932 199.522L70.0302 235.423C58.6587 246.795 40.2219 246.795 28.8504 235.424V235.424C17.4789 224.052 17.4789 205.615 28.8504 194.244L41.6303 181.464" stroke="#BEBCDD" stroke-width="12.78"/>
<path d="M39.0615 183.26C28.0631 172.262 28.0631 154.43 39.0615 143.431L72.0291 110.464L111.858 150.293L78.8904 183.26C67.8919 194.259 50.0599 194.259 39.0615 183.26V183.26Z" fill="#FABE2C"/>
<path fill-rule="evenodd" clip-rule="evenodd" d="M39.0615 143.431C28.0631 154.43 28.0631 172.262 39.0615 183.26C39.1174 183.316 39.1734 183.372 39.2296 183.427L92.1109 130.546L72.0291 110.464L39.0615 143.431Z" fill="#FFE287"/>
<path d="M12.9937 14.3776L52.9185 54.3023C80.2759 81.6597 124.631 81.6597 151.988 54.3023L187.89 18.4009C199.261 7.02939 217.698 7.02938 229.07 18.4009V18.4009C240.441 29.7724 240.441 48.2093 229.07 59.5808L216.29 72.3607" stroke="#BEBCDD" stroke-width="12.78"/>
<path d="M218.859 70.5641C229.857 81.5625 229.857 99.3945 218.859 110.393L185.891 143.36L146.062 103.532L179.03 70.5641C190.028 59.5657 207.86 59.5656 218.859 70.5641V70.5641Z" fill="#FF6666"/>
<path fill-rule="evenodd" clip-rule="evenodd" d="M218.859 110.393C229.857 99.3945 229.857 81.5625 218.859 70.5641C218.803 70.5082 218.747 70.4527 218.691 70.3974L165.809 123.279L185.891 143.36L218.859 110.393Z" fill="#EB5454"/>
</svg>
