<svg width="256" height="256" viewBox="0 0 256 256" fill="none" xmlns="http://www.w3.org/2000/svg">
<path fill-rule="evenodd" clip-rule="evenodd" d="M121.613 19.9381C120.677 20.4565 116.256 24.439 111.791 28.7892L103.67 36.698L92.6303 33.755C80.7332 30.5847 77.7561 30.5506 72.9039 33.5311C69.0719 35.8858 67.2904 39.3302 64.5961 49.592C63.3051 54.5084 61.9222 59.1472 61.5219 59.9015C61.0714 60.7494 57.2939 62.1779 51.6063 63.6515C40.1954 66.6073 36.4417 68.5943 33.8189 73.0688C31.128 77.6591 31.2293 80.7451 34.4729 93.0305L37.1723 103.255L28.9769 111.594C20.4638 120.257 19 122.603 19 127.586C19 132.13 21.0489 135.312 29.458 143.831L37.1877 151.662L34.4806 161.916C31.2293 174.23 31.1271 177.314 33.8189 181.906C36.4417 186.381 40.1954 188.368 51.6063 191.324C57.2939 192.797 61.0714 194.226 61.5219 195.074C61.9222 195.828 63.3051 200.467 64.5961 205.383C67.2904 215.645 69.0719 219.089 72.9039 221.444C77.7697 224.433 80.7289 224.393 92.6602 221.178L103.73 218.194L111.82 226.167C116.27 230.553 120.747 234.566 121.77 235.086C124.171 236.305 131.829 236.305 134.23 235.086C135.253 234.566 139.73 230.553 144.18 226.167L152.27 218.194L163.34 221.178C175.271 224.393 178.23 224.433 183.096 221.444C186.928 219.089 188.71 215.645 191.404 205.383C192.695 200.467 194.078 195.828 194.478 195.074C194.929 194.225 198.698 192.802 204.394 191.332C216.129 188.304 220.12 186.083 222.442 181.289C224.821 176.376 224.707 173.989 221.519 161.916L218.812 151.662L226.542 143.831C234.994 135.269 237 132.134 237 127.488C237 122.841 234.994 119.707 226.542 111.144L218.812 103.313L221.519 93.0595C224.771 80.7452 224.873 77.6608 222.181 73.0688C219.558 68.5943 215.805 66.6073 204.394 63.6515C198.706 62.1779 194.929 60.7494 194.478 59.9015C194.078 59.1472 192.695 54.5084 191.404 49.592C188.71 39.3302 186.928 35.8858 183.096 33.5311C178.236 30.5455 175.269 30.5829 163.395 33.7805L152.379 36.7465L144.235 28.8037C139.755 24.4347 135.253 20.4293 134.23 19.9023C131.86 18.6824 123.844 18.7045 121.613 19.9381ZM142.219 82.349C154.737 86.323 164.461 94.6123 170.203 106.205C173.288 112.431 175.658 121.681 175.658 127.488C175.658 133.376 173.272 142.574 170.042 149.133C156.286 177.078 117.499 183.504 95.1595 161.54C75.938 142.642 75.7336 112.782 94.6971 93.9236C107.189 81.5003 125.5 77.0402 142.219 82.349Z" fill="#BEBCDD"/>
<path fill-rule="evenodd" clip-rule="evenodd" d="M128 204.557C170.321 204.557 204.629 170.249 204.629 127.928C204.629 85.6069 170.321 51.299 128 51.299C85.679 51.299 51.3711 85.6069 51.3711 127.928C51.3711 170.249 85.679 204.557 128 204.557ZM128 174.757C153.863 174.757 174.829 153.791 174.829 127.928C174.829 102.065 153.863 81.0991 128 81.0991C102.137 81.0991 81.1712 102.065 81.1712 127.928C81.1712 153.791 102.137 174.757 128 174.757Z" fill="#FFE287"/>
<path d="M120.671 133.803L134.893 119.902C147.305 107.769 149.461 106 151.843 106C155.418 106 158 108.575 158 112.14C158 114.617 156.175 116.694 140.595 131.953C125.798 146.446 122.809 149 120.647 149C118.583 149 116.201 147.233 108.051 139.656C98.6849 130.949 98 130.096 98 127.14C98 123.334 100.316 120.896 103.931 120.896C105.829 120.896 108.083 122.409 113.542 127.349L120.671 133.803Z" fill="#31BEBE"/>
</svg>
