<svg width="1250" height="558" xmlns="http://www.w3.org/2000/svg"><title>Crowdin logo</title><g fill="none" fill-rule="evenodd"><path fill="#FFF" d="M0 0h1250v558H0z"/><g fill-rule="nonzero"><g fill="#64748B"><path d="M423.581 125.47V95.41h10.157c2.358 0 4.288.423 5.79 1.27 1.502.846 2.615 1.988 3.339 3.427.724 1.438 1.086 3.043 1.086 4.814 0 1.77-.36 3.38-1.079 4.828-.719 1.448-1.827 2.6-3.324 3.457-1.497.856-3.415 1.284-5.753 1.284h-7.28v-3.229h7.162c1.615 0 2.911-.279 3.89-.837.978-.557 1.69-1.313 2.135-2.267.445-.954.668-2.033.668-3.236 0-1.204-.223-2.28-.668-3.23-.445-.948-1.162-1.695-2.15-2.238-.988-.543-2.3-.814-3.934-.814h-6.399v26.83h-3.64ZM458.487 125.47V95.41h10.156c2.349 0 4.276.399 5.783 1.196 1.507.798 2.622 1.891 3.347 3.28.724 1.39 1.086 2.97 1.086 4.741 0 1.771-.362 3.342-1.086 4.711-.725 1.37-1.835 2.444-3.332 3.222-1.497.778-3.41 1.167-5.739 1.167h-8.219v-3.288h8.102c1.604 0 2.898-.235 3.882-.704.983-.47 1.697-1.138 2.143-2.004.445-.866.667-1.9.667-3.104 0-1.203-.225-2.255-.675-3.155-.45-.9-1.169-1.598-2.157-2.092s-2.295-.741-3.919-.741h-6.4v26.83h-3.639Zm14.149-13.503 7.397 13.502h-4.227l-7.28-13.502h4.11ZM493.569 125.47V95.41h18.14v3.229h-14.5v10.156h13.561v3.23H497.21v10.214h14.735v3.23zM543.386 102.926c-.176-1.488-.89-2.642-2.143-3.464-1.252-.822-2.788-1.233-4.608-1.233-1.33 0-2.493.215-3.486.646-.993.43-1.766 1.022-2.319 1.776a4.231 4.231 0 0 0-.83 2.568c0 .802.194 1.49.58 2.062a4.876 4.876 0 0 0 1.49 1.424c.607.377 1.243.685 1.908.924.666.24 1.277.433 1.835.58l3.053.822c.782.206 1.656.49 2.62.851.963.362 1.888.854 2.773 1.475a7.663 7.663 0 0 1 2.195 2.385c.577.97.866 2.158.866 3.567 0 1.624-.424 3.092-1.27 4.403-.846 1.311-2.08 2.353-3.699 3.126-1.619.773-3.583 1.16-5.892 1.16-2.153 0-4.014-.348-5.585-1.042-1.57-.695-2.803-1.664-3.698-2.906-.896-1.243-1.402-2.686-1.52-4.33h3.758c.098 1.135.482 2.072 1.152 2.81.67.74 1.521 1.287 2.554 1.644 1.032.357 2.145.536 3.339.536 1.39 0 2.637-.227 3.742-.682 1.106-.455 1.982-1.091 2.627-1.908.646-.817.97-1.774.97-2.87 0-.998-.28-1.81-.837-2.436-.558-.626-1.292-1.135-2.202-1.527a23.134 23.134 0 0 0-2.95-1.027l-3.699-1.057c-2.348-.675-4.207-1.639-5.577-2.891s-2.055-2.891-2.055-4.917c0-1.683.458-3.153 1.373-4.41.915-1.258 2.147-2.236 3.698-2.936 1.551-.7 3.285-1.049 5.203-1.049 1.938 0 3.66.345 5.167 1.035 1.506.69 2.703 1.631 3.588 2.825.886 1.194 1.353 2.549 1.402 4.066h-3.523ZM561.971 125.47V95.41h18.14v3.229h-14.5v10.156h13.561v3.23h-13.561v10.214h14.736v3.23zM619.186 95.411v30.058h-3.523l-16.38-23.6h-.293v23.6h-3.64V95.411h3.523l16.438 23.66h.293V95.41zM633.485 98.64V95.41h22.544v3.229h-9.452v26.83h-3.64V98.64zM670.328 125.47V95.41h18.14v3.229h-14.5v10.156h13.561v3.23h-13.561v10.214h14.735v3.23zM712.983 125.47h-9.276V95.41h9.687c2.916 0 5.41.6 7.485 1.798 2.074 1.198 3.664 2.916 4.77 5.151 1.106 2.236 1.659 4.91 1.659 8.021 0 3.132-.558 5.825-1.674 8.08-1.115 2.255-2.74 3.987-4.872 5.196-2.133 1.208-4.726 1.812-7.78 1.812Zm-5.636-3.23h5.401c2.485 0 4.545-.48 6.18-1.438 1.633-.959 2.851-2.324 3.654-4.095.802-1.77 1.203-3.88 1.203-6.326 0-2.426-.396-4.518-1.189-6.274-.792-1.756-1.976-3.107-3.551-4.05-1.576-.945-3.538-1.417-5.886-1.417h-5.812v23.6ZM762.364 125.47V95.41h10.509c2.094 0 3.82.36 5.18 1.079 1.36.719 2.373 1.683 3.039 2.891.665 1.208.998 2.547.998 4.014 0 1.292-.228 2.358-.683 3.2-.455.841-1.052 1.507-1.79 1.996a8.248 8.248 0 0 1-2.4 1.086v.293c.92.06 1.844.382 2.774.97.93.586 1.707 1.428 2.334 2.524.626 1.095.939 2.436.939 4.021 0 1.507-.343 2.862-1.028 4.066-.684 1.203-1.766 2.157-3.243 2.862-1.478.704-3.4 1.056-5.768 1.056h-10.861Zm3.64-3.23h7.22c2.379 0 4.069-.462 5.072-1.387 1.003-.924 1.504-2.047 1.504-3.368a5.4 5.4 0 0 0-.778-2.825c-.518-.866-1.257-1.56-2.216-2.084-.959-.524-2.094-.786-3.405-.786h-7.397v10.45Zm0-13.62h6.751c1.096 0 2.087-.215 2.972-.646a5.247 5.247 0 0 0 2.114-1.82c.523-.782.785-1.702.785-2.759 0-1.32-.46-2.444-1.38-3.368-.92-.925-2.377-1.387-4.373-1.387h-6.87v9.98ZM795.332 95.411h4.168l8.337 14.031h.352l8.337-14.031h4.168l-10.861 17.671v12.387h-3.64v-12.387z"/></g><g fill="#334155"><path d="M152 451h-5.107l14.774-40.235h5.03L181.47 451h-5.108l-12.023-33.87h-.315L152.001 451Zm1.887-15.717h20.589v4.322h-20.59v-4.322ZM199.309 462.945c-2.24 0-4.165-.285-5.776-.855-1.611-.57-2.95-1.316-4.018-2.24-1.067-.923-1.915-1.908-2.544-2.956l3.693-2.593c.42.55.95 1.182 1.592 1.895.641.714 1.522 1.336 2.642 1.867 1.12.53 2.59.795 4.41.795 2.437 0 4.447-.589 6.032-1.768 1.585-1.178 2.377-3.025 2.377-5.54v-6.13h-.393c-.34.55-.822 1.228-1.444 2.034-.622.805-1.513 1.52-2.672 2.141-1.159.622-2.72.933-4.685.933-2.436 0-4.62-.576-6.552-1.728-1.932-1.153-3.458-2.83-4.578-5.03s-1.68-4.872-1.68-8.015c0-3.091.544-5.786 1.631-8.085 1.087-2.298 2.6-4.08 4.538-5.343 1.939-1.264 4.178-1.896 6.72-1.896 1.964 0 3.526.324 4.685.972 1.159.648 2.05 1.382 2.672 2.2.622.82 1.103 1.49 1.444 2.014h.471v-4.793h4.48v31.04c0 2.594-.587 4.706-1.759 6.336s-2.744 2.83-4.715 3.596c-1.971.766-4.162 1.149-6.571 1.149Zm-.158-16.581c1.86 0 3.432-.426 4.715-1.277 1.284-.852 2.26-2.076 2.928-3.674.668-1.598 1.002-3.51 1.002-5.737 0-2.174-.328-4.093-.983-5.756-.654-1.664-1.624-2.967-2.907-3.91-1.284-.943-2.869-1.414-4.755-1.414-1.964 0-3.598.497-4.901 1.493-1.303.995-2.28 2.331-2.928 4.008-.648 1.676-.972 3.536-.972 5.58 0 2.095.33 3.945.992 5.55.662 1.604 1.644 2.86 2.947 3.771 1.303.91 2.924 1.366 4.862 1.366ZM220.84 451v-30.176h4.637V451h-4.636Zm2.358-35.206c-.904 0-1.68-.308-2.328-.923-.648-.616-.972-1.356-.972-2.22 0-.865.324-1.605.972-2.22a3.263 3.263 0 0 1 2.328-.924c.904 0 1.68.308 2.328.924.649.615.973 1.355.973 2.22 0 .864-.324 1.604-.973 2.22a3.263 3.263 0 0 1-2.328.923ZM238.6 410.765V451h-4.636v-40.235zM259.74 451.629c-2.908 0-5.413-.645-7.515-1.935-2.102-1.29-3.72-3.098-4.852-5.423-1.133-2.325-1.7-5.032-1.7-8.123 0-3.091.567-5.819 1.7-8.183s2.717-4.21 4.754-5.54c2.037-1.33 4.417-1.994 7.141-1.994 1.572 0 3.124.262 4.657.786 1.532.523 2.927 1.371 4.184 2.544 1.258 1.172 2.26 2.72 3.006 4.646.747 1.925 1.12 4.296 1.12 7.112v1.964h-23.261v-4.007h18.546c0-1.703-.337-3.222-1.012-4.558-.675-1.336-1.63-2.39-2.868-3.163-1.238-.773-2.695-1.16-4.372-1.16-1.846 0-3.44.456-4.783 1.366a9.092 9.092 0 0 0-3.095 3.546 10.389 10.389 0 0 0-1.08 4.676v2.672c0 2.279.396 4.207 1.188 5.786.793 1.578 1.896 2.776 3.31 3.595 1.415.818 3.059 1.228 4.932 1.228 1.218 0 2.321-.174 3.31-.52a6.905 6.905 0 0 0 2.564-1.573c.72-.7 1.277-1.575 1.67-2.622l4.48 1.257a9.853 9.853 0 0 1-2.378 3.998c-1.113 1.146-2.488 2.037-4.126 2.672-1.637.635-3.477.953-5.52.953ZM299.504 410.765V451h-4.637v-40.235zM320.25 451.629c-2.724 0-5.111-.649-7.161-1.945-2.05-1.297-3.648-3.11-4.794-5.442-1.146-2.332-1.719-5.056-1.719-8.173 0-3.143.573-5.887 1.72-8.232 1.145-2.344 2.743-4.165 4.793-5.461 2.05-1.297 4.437-1.945 7.16-1.945 2.725 0 5.112.648 7.162 1.945 2.05 1.296 3.648 3.117 4.794 5.461 1.146 2.345 1.719 5.089 1.719 8.232 0 3.117-.573 5.841-1.72 8.173-1.145 2.331-2.743 4.145-4.793 5.442-2.05 1.296-4.437 1.945-7.161 1.945Zm0-4.165c2.07 0 3.772-.53 5.108-1.592 1.336-1.06 2.325-2.455 2.966-4.184.642-1.73.963-3.602.963-5.619s-.32-3.897-.963-5.638c-.641-1.742-1.63-3.15-2.966-4.224-1.336-1.074-3.039-1.611-5.108-1.611-2.07 0-3.772.537-5.108 1.61-1.336 1.075-2.325 2.483-2.967 4.225-.641 1.741-.962 3.621-.962 5.638s.32 3.89.962 5.619c.642 1.729 1.631 3.123 2.967 4.184s3.038 1.592 5.108 1.592ZM353.255 451.629c-2.829 0-5.265-.668-7.308-2.004-2.043-1.336-3.615-3.176-4.715-5.52-1.1-2.345-1.65-5.024-1.65-8.036 0-3.065.566-5.773 1.699-8.124 1.133-2.35 2.718-4.19 4.754-5.52 2.037-1.33 4.417-1.994 7.142-1.994 2.122 0 4.034.393 5.736 1.178 1.703.786 3.098 1.886 4.185 3.301 1.087 1.415 1.762 3.065 2.024 4.95h-4.637c-.354-1.374-1.136-2.596-2.348-3.663-1.211-1.068-2.838-1.601-4.882-1.601-1.807 0-3.389.468-4.744 1.404-1.356.937-2.41 2.253-3.163 3.95-.753 1.695-1.13 3.683-1.13 5.962 0 2.331.37 4.361 1.11 6.09.74 1.729 1.788 3.071 3.143 4.028 1.356.956 2.95 1.434 4.784 1.434 1.205 0 2.299-.21 3.281-.629a6.768 6.768 0 0 0 2.495-1.807c.681-.786 1.166-1.73 1.454-2.83h4.637c-.262 1.782-.907 3.383-1.936 4.804-1.028 1.421-2.383 2.547-4.066 3.38-1.683.83-3.638 1.247-5.865 1.247ZM380.76 451.707c-1.912 0-3.648-.363-5.206-1.09-1.559-.727-2.797-1.781-3.713-3.163-.917-1.382-1.376-3.055-1.376-5.02 0-1.729.34-3.133 1.022-4.214a7.237 7.237 0 0 1 2.73-2.544c1.14-.616 2.4-1.077 3.783-1.385a47.588 47.588 0 0 1 4.174-.737c1.834-.235 3.324-.416 4.47-.54 1.146-.124 1.984-.337 2.515-.638.53-.302.795-.826.795-1.572v-.157c0-1.939-.527-3.445-1.581-4.519-1.055-1.074-2.65-1.61-4.784-1.61-2.214 0-3.949.484-5.206 1.453-1.258.97-2.142 2.004-2.653 3.104l-4.4-1.572c.786-1.833 1.837-3.264 3.153-4.292a11.883 11.883 0 0 1 4.322-2.161 18.1 18.1 0 0 1 4.627-.62c.969 0 2.085.115 3.35.344 1.263.23 2.488.698 3.673 1.405 1.185.707 2.171 1.775 2.957 3.203.786 1.427 1.179 3.34 1.179 5.736V451h-4.637v-4.086h-.236c-.314.654-.838 1.355-1.571 2.102-.734.746-1.71 1.382-2.928 1.905-1.218.524-2.704.786-4.46.786Zm.707-4.165c1.834 0 3.382-.36 4.646-1.08 1.264-.72 2.22-1.65 2.869-2.79.648-1.14.972-2.338.972-3.595v-4.244c-.196.236-.625.449-1.287.639-.661.19-1.42.353-2.279.49-.857.138-1.69.256-2.495.354-.805.099-1.457.18-1.954.246-1.205.157-2.328.41-3.37.756-1.04.348-1.88.865-2.514 1.552-.636.688-.953 1.621-.953 2.8 0 1.611.599 2.826 1.797 3.644 1.199.819 2.721 1.228 4.568 1.228ZM407.714 410.765V451h-4.636v-40.235zM416.201 451v-30.176h4.637V451H416.2Zm2.358-35.206c-.904 0-1.68-.308-2.328-.923-.648-.616-.973-1.356-.973-2.22 0-.865.325-1.605.973-2.22a3.263 3.263 0 0 1 2.328-.924c.904 0 1.68.308 2.328.924.648.615.972 1.355.972 2.22 0 .864-.324 1.604-.972 2.22a3.263 3.263 0 0 1-2.328.923ZM428.46 451v-3.536l17.132-22.004v-.314H429.01v-4.322h22.553v3.693l-16.66 21.847v.314h17.21V451zM468.146 451.707c-1.913 0-3.648-.363-5.207-1.09-1.558-.727-2.796-1.781-3.713-3.163-.917-1.382-1.375-3.055-1.375-5.02 0-1.729.34-3.133 1.022-4.214a7.237 7.237 0 0 1 2.73-2.544c1.14-.616 2.4-1.077 3.782-1.385a47.588 47.588 0 0 1 4.175-.737c1.834-.235 3.324-.416 4.47-.54 1.146-.124 1.984-.337 2.514-.638.53-.302.796-.826.796-1.572v-.157c0-1.939-.527-3.445-1.582-4.519-1.054-1.074-2.648-1.61-4.783-1.61-2.214 0-3.95.484-5.207 1.453-1.257.97-2.141 2.004-2.652 3.104l-4.4-1.572c.785-1.833 1.836-3.264 3.153-4.292a11.883 11.883 0 0 1 4.322-2.161 18.1 18.1 0 0 1 4.627-.62c.969 0 2.085.115 3.35.344 1.263.23 2.488.698 3.673 1.405 1.185.707 2.17 1.775 2.957 3.203.786 1.427 1.178 3.34 1.178 5.736V451h-4.636v-4.086h-.236c-.314.654-.838 1.355-1.571 2.102-.734.746-1.71 1.382-2.928 1.905-1.218.524-2.704.786-4.46.786Zm.707-4.165c1.834 0 3.382-.36 4.646-1.08 1.264-.72 2.22-1.65 2.869-2.79.648-1.14.972-2.338.972-3.595v-4.244c-.196.236-.625.449-1.287.639-.661.19-1.42.353-2.279.49-.858.138-1.69.256-2.495.354-.805.099-1.457.18-1.955.246-1.205.157-2.328.41-3.369.756-1.041.348-1.88.865-2.515 1.552-.635.688-.952 1.621-.952 2.8 0 1.611.599 2.826 1.797 3.644 1.199.819 2.721 1.228 4.568 1.228ZM503.587 420.824v3.929H487.95v-3.93h15.638Zm-11.08-7.23h4.636v28.762c0 1.31.193 2.288.58 2.937.386.648.884 1.08 1.493 1.296a5.744 5.744 0 0 0 1.935.325c.51 0 .93-.03 1.257-.089.328-.059.59-.108.786-.147l.943 4.165c-.314.118-.753.239-1.316.363-.563.125-1.277.187-2.141.187-1.31 0-2.59-.282-3.841-.845-1.251-.563-2.286-1.42-3.104-2.573-.819-1.153-1.228-2.607-1.228-4.362v-30.02ZM510.581 451v-30.176h4.637V451h-4.637Zm2.358-35.206c-.904 0-1.68-.308-2.328-.923-.649-.616-.973-1.356-.973-2.22 0-.865.324-1.605.973-2.22a3.263 3.263 0 0 1 2.328-.924c.903 0 1.68.308 2.328.924.648.615.972 1.355.972 2.22 0 .864-.324 1.604-.972 2.22a3.263 3.263 0 0 1-2.328.923ZM535.964 451.629c-2.724 0-5.111-.649-7.161-1.945-2.05-1.297-3.648-3.11-4.794-5.442-1.146-2.332-1.719-5.056-1.719-8.173 0-3.143.573-5.887 1.72-8.232 1.145-2.344 2.743-4.165 4.793-5.461 2.05-1.297 4.437-1.945 7.16-1.945 2.725 0 5.112.648 7.162 1.945 2.05 1.296 3.648 3.117 4.794 5.461 1.146 2.345 1.719 5.089 1.719 8.232 0 3.117-.573 5.841-1.72 8.173-1.145 2.331-2.743 4.145-4.793 5.442-2.05 1.296-4.437 1.945-7.161 1.945Zm0-4.165c2.07 0 3.772-.53 5.108-1.592 1.336-1.06 2.325-2.455 2.966-4.184.642-1.73.963-3.602.963-5.619s-.32-3.897-.963-5.638c-.641-1.742-1.63-3.15-2.966-4.224-1.336-1.074-3.039-1.611-5.108-1.611-2.07 0-3.772.537-5.108 1.61-1.336 1.075-2.325 2.483-2.967 4.225-.641 1.741-.962 3.621-.962 5.638s.32 3.89.962 5.619c.642 1.729 1.631 3.123 2.967 4.184s3.039 1.592 5.108 1.592ZM561.347 432.847V451h-4.637v-30.176h4.48v4.715h.392c.708-1.533 1.782-2.767 3.222-3.704 1.441-.936 3.3-1.404 5.58-1.404 2.043 0 3.83.416 5.363 1.247 1.533.832 2.725 2.09 3.576 3.772.851 1.683 1.277 3.808 1.277 6.375V451h-4.637v-18.86c0-2.37-.615-4.22-1.846-5.55-1.232-1.33-2.921-1.994-5.07-1.994-1.48 0-2.799.32-3.958.962-1.159.642-2.072 1.579-2.74 2.81-.668 1.23-1.002 2.724-1.002 4.479ZM618.085 420.824v3.929h-16.267v-3.93h16.267ZM606.69 451v-34.341c0-1.73.406-3.17 1.218-4.323a7.548 7.548 0 0 1 3.163-2.593 9.998 9.998 0 0 1 4.106-.864c1.14 0 2.07.091 2.79.275.72.183 1.257.353 1.61.51l-1.335 4.008c-.236-.078-.56-.176-.973-.294-.412-.118-.953-.177-1.62-.177-1.533 0-2.636.386-3.31 1.159-.675.773-1.013 1.906-1.013 3.399V451h-4.636ZM636.866 451.629c-2.724 0-5.111-.649-7.16-1.945-2.05-1.297-3.648-3.11-4.794-5.442-1.146-2.332-1.72-5.056-1.72-8.173 0-3.143.574-5.887 1.72-8.232 1.146-2.344 2.743-4.165 4.793-5.461 2.05-1.297 4.437-1.945 7.161-1.945 2.724 0 5.111.648 7.161 1.945 2.05 1.296 3.648 3.117 4.794 5.461 1.146 2.345 1.719 5.089 1.719 8.232 0 3.117-.573 5.841-1.72 8.173-1.145 2.331-2.743 4.145-4.793 5.442-2.05 1.296-4.437 1.945-7.16 1.945Zm0-4.165c2.07 0 3.772-.53 5.108-1.592 1.336-1.06 2.325-2.455 2.967-4.184.642-1.73.962-3.602.962-5.619s-.32-3.897-.962-5.638c-.642-1.742-1.63-3.15-2.967-4.224-1.336-1.074-3.038-1.611-5.108-1.611s-3.772.537-5.108 1.61c-1.336 1.075-2.325 2.483-2.966 4.225-.642 1.741-.963 3.621-.963 5.638s.32 3.89.963 5.619c.641 1.729 1.63 3.123 2.966 4.184 1.336 1.061 3.039 1.592 5.108 1.592ZM657.613 451v-30.176h4.479v4.558h.314c.55-1.494 1.546-2.705 2.986-3.635 1.441-.93 3.065-1.395 4.873-1.395.34 0 .766.007 1.277.02.51.013.897.032 1.159.059v4.715c-.157-.04-.514-.102-1.071-.187a11.628 11.628 0 0 0-1.758-.128c-1.467 0-2.774.305-3.92.914a6.972 6.972 0 0 0-2.71 2.515c-.662 1.067-.993 2.282-.993 3.644V451h-4.636ZM706.885 420.824v3.929h-15.638v-3.93h15.638Zm-11.08-7.23h4.636v28.762c0 1.31.193 2.288.58 2.937.386.648.884 1.08 1.493 1.296a5.744 5.744 0 0 0 1.935.325c.51 0 .93-.03 1.257-.089.328-.059.59-.108.786-.147l.943 4.165c-.314.118-.753.239-1.316.363-.563.125-1.277.187-2.142.187-1.31 0-2.59-.282-3.84-.845-1.251-.563-2.286-1.42-3.105-2.573-.818-1.153-1.228-2.607-1.228-4.362v-30.02ZM726.531 451.629c-2.908 0-5.413-.645-7.515-1.935-2.102-1.29-3.72-3.098-4.852-5.423-1.133-2.325-1.7-5.032-1.7-8.123 0-3.091.567-5.819 1.7-8.183s2.717-4.21 4.754-5.54c2.037-1.33 4.417-1.994 7.141-1.994 1.572 0 3.124.262 4.657.786 1.532.523 2.927 1.371 4.184 2.544 1.258 1.172 2.26 2.72 3.006 4.646.747 1.925 1.12 4.296 1.12 7.112v1.964h-23.261v-4.007h18.546c0-1.703-.337-3.222-1.012-4.558-.674-1.336-1.63-2.39-2.868-3.163-1.238-.773-2.695-1.16-4.372-1.16-1.846 0-3.44.456-4.783 1.366a9.092 9.092 0 0 0-3.095 3.546 10.389 10.389 0 0 0-1.08 4.676v2.672c0 2.279.396 4.207 1.188 5.786.793 1.578 1.896 2.776 3.31 3.595 1.415.818 3.06 1.228 4.932 1.228 1.218 0 2.321-.174 3.31-.52a6.905 6.905 0 0 0 2.564-1.573c.72-.7 1.277-1.575 1.67-2.622l4.48 1.257a9.853 9.853 0 0 1-2.378 3.998c-1.113 1.146-2.488 2.037-4.125 2.672-1.638.635-3.478.953-5.521.953ZM758.358 451.629c-2.83 0-5.266-.668-7.309-2.004-2.043-1.336-3.615-3.176-4.715-5.52-1.1-2.345-1.65-5.024-1.65-8.036 0-3.065.566-5.773 1.7-8.124 1.132-2.35 2.717-4.19 4.754-5.52 2.036-1.33 4.417-1.994 7.141-1.994 2.122 0 4.034.393 5.737 1.178 1.702.786 3.097 1.886 4.184 3.301 1.087 1.415 1.762 3.065 2.024 4.95h-4.637c-.353-1.374-1.136-2.596-2.347-3.663-1.212-1.068-2.84-1.601-4.882-1.601-1.808 0-3.39.468-4.745 1.404-1.355.937-2.41 2.253-3.163 3.95-.753 1.695-1.13 3.683-1.13 5.962 0 2.331.37 4.361 1.11 6.09.74 1.729 1.788 3.071 3.144 4.028 1.355.956 2.95 1.434 4.784 1.434 1.205 0 2.298-.21 3.28-.629a6.768 6.768 0 0 0 2.496-1.807c.68-.786 1.165-1.73 1.453-2.83h4.637c-.262 1.782-.907 3.383-1.935 4.804-1.028 1.421-2.384 2.547-4.067 3.38-1.683.83-3.638 1.247-5.864 1.247ZM781.619 432.847V451h-4.637v-40.235h4.637v14.774h.393a8.571 8.571 0 0 1 3.192-3.723c1.421-.924 3.317-1.385 5.688-1.385 2.056 0 3.857.409 5.402 1.228 1.546.818 2.747 2.069 3.605 3.752.858 1.683 1.287 3.821 1.287 6.414V451h-4.636v-18.86c0-2.397-.62-4.254-1.857-5.57-1.238-1.316-2.95-1.974-5.137-1.974-1.52 0-2.879.32-4.077.962-1.198.642-2.141 1.579-2.829 2.81-.688 1.23-1.031 2.724-1.031 4.479ZM837.492 451.629c-2.829 0-5.265-.668-7.308-2.004-2.043-1.336-3.615-3.176-4.715-5.52-1.1-2.345-1.65-5.024-1.65-8.036 0-3.065.566-5.773 1.699-8.124 1.133-2.35 2.718-4.19 4.754-5.52 2.037-1.33 4.417-1.994 7.142-1.994 2.121 0 4.033.393 5.736 1.178 1.703.786 3.098 1.886 4.185 3.301 1.087 1.415 1.761 3.065 2.023 4.95h-4.636c-.354-1.374-1.136-2.596-2.348-3.663-1.211-1.068-2.839-1.601-4.882-1.601-1.807 0-3.389.468-4.744 1.404-1.356.937-2.41 2.253-3.163 3.95-.754 1.695-1.13 3.683-1.13 5.962 0 2.331.37 4.361 1.11 6.09.74 1.729 1.788 3.071 3.143 4.028 1.356.956 2.95 1.434 4.784 1.434 1.205 0 2.299-.21 3.281-.629a6.768 6.768 0 0 0 2.495-1.807c.681-.786 1.166-1.73 1.454-2.83h4.636c-.262 1.782-.907 3.383-1.935 4.804-1.028 1.421-2.384 2.547-4.067 3.38-1.683.83-3.637 1.247-5.864 1.247ZM868.376 451.629c-2.725 0-5.112-.649-7.161-1.945-2.05-1.297-3.648-3.11-4.794-5.442-1.146-2.332-1.719-5.056-1.719-8.173 0-3.143.573-5.887 1.72-8.232 1.145-2.344 2.743-4.165 4.793-5.461 2.05-1.297 4.436-1.945 7.16-1.945 2.725 0 5.112.648 7.162 1.945 2.05 1.296 3.647 3.117 4.793 5.461 1.146 2.345 1.72 5.089 1.72 8.232 0 3.117-.574 5.841-1.72 8.173-1.146 2.331-2.744 4.145-4.793 5.442-2.05 1.296-4.437 1.945-7.161 1.945Zm0-4.165c2.07 0 3.772-.53 5.108-1.592 1.336-1.06 2.325-2.455 2.966-4.184.642-1.73.963-3.602.963-5.619s-.321-3.897-.963-5.638c-.641-1.742-1.63-3.15-2.966-4.224-1.336-1.074-3.039-1.611-5.108-1.611-2.07 0-3.772.537-5.108 1.61-1.336 1.075-2.325 2.483-2.967 4.225-.642 1.741-.962 3.621-.962 5.638s.32 3.89.962 5.619c.642 1.729 1.63 3.123 2.967 4.184 1.336 1.061 3.038 1.592 5.108 1.592ZM889.122 451v-30.176h4.48v4.715h.392c.629-1.611 1.644-2.865 3.045-3.763 1.402-.897 3.085-1.345 5.05-1.345 1.99 0 3.65.448 4.98 1.345 1.33.898 2.367 2.152 3.114 3.763h.314c.773-1.559 1.932-2.8 3.477-3.723 1.546-.924 3.4-1.385 5.56-1.385 2.698 0 4.905.841 6.62 2.524 1.717 1.683 2.575 4.3 2.575 7.849V451h-4.637v-20.196c0-2.227-.609-3.818-1.827-4.774s-2.652-1.434-4.303-1.434c-2.121 0-3.765.638-4.93 1.915-1.166 1.277-1.75 2.891-1.75 4.843V451h-4.714v-20.668c0-1.715-.557-3.1-1.67-4.155-1.113-1.054-2.548-1.581-4.303-1.581-1.205 0-2.328.32-3.369.962-1.041.642-1.88 1.53-2.515 2.662-.635 1.133-.953 2.44-.953 3.92V451h-4.636ZM937.216 462.316v-41.492h4.479v4.793h.55c.34-.524.815-1.195 1.424-2.013.61-.82 1.487-1.553 2.633-2.2 1.146-.65 2.701-.973 4.666-.973 2.54 0 4.78.635 6.719 1.905 1.938 1.27 3.451 3.072 4.538 5.403 1.087 2.331 1.63 5.082 1.63 8.251 0 3.196-.543 5.963-1.63 8.3-1.087 2.339-2.593 4.146-4.519 5.423-1.925 1.277-4.145 1.916-6.66 1.916-1.938 0-3.49-.324-4.656-.973-1.165-.648-2.062-1.388-2.691-2.22-.629-.831-1.113-1.522-1.454-2.072h-.393v15.952h-4.636Zm4.558-26.404c0 2.279.334 4.286 1.001 6.021.668 1.736 1.644 3.091 2.928 4.067 1.283.976 2.855 1.464 4.715 1.464 1.938 0 3.559-.514 4.862-1.543 1.303-1.028 2.286-2.416 2.947-4.164.662-1.749.992-3.697.992-5.845 0-2.122-.324-4.037-.972-5.747-.649-1.709-1.624-3.064-2.928-4.066-1.303-1.002-2.937-1.503-4.901-1.503-1.886 0-3.471.474-4.755 1.424-1.283.95-2.252 2.272-2.907 3.969-.655 1.696-.982 3.67-.982 5.923ZM979.808 451.707c-1.912 0-3.647-.363-5.206-1.09-1.558-.727-2.796-1.781-3.713-3.163-.917-1.382-1.375-3.055-1.375-5.02 0-1.729.34-3.133 1.021-4.214a7.237 7.237 0 0 1 2.731-2.544c1.14-.616 2.4-1.077 3.782-1.385a47.588 47.588 0 0 1 4.175-.737c1.833-.235 3.323-.416 4.47-.54 1.145-.124 1.984-.337 2.514-.638.53-.302.796-.826.796-1.572v-.157c0-1.939-.527-3.445-1.582-4.519-1.054-1.074-2.649-1.61-4.784-1.61-2.213 0-3.948.484-5.206 1.453-1.257.97-2.141 2.004-2.652 3.104l-4.4-1.572c.785-1.833 1.836-3.264 3.152-4.292a11.883 11.883 0 0 1 4.323-2.161 18.1 18.1 0 0 1 4.626-.62c.97 0 2.086.115 3.35.344 1.264.23 2.488.698 3.674 1.405 1.185.707 2.17 1.775 2.956 3.203.786 1.427 1.18 3.34 1.18 5.736V451h-4.637v-4.086h-.236c-.314.654-.838 1.355-1.572 2.102-.733.746-1.709 1.382-2.927 1.905-1.218.524-2.705.786-4.46.786Zm.708-4.165c1.833 0 3.382-.36 4.646-1.08 1.264-.72 2.22-1.65 2.868-2.79.649-1.14.973-2.338.973-3.595v-4.244c-.197.236-.626.449-1.287.639-.662.19-1.421.353-2.28.49-.857.138-1.689.256-2.494.354-.806.099-1.457.18-1.955.246-1.205.157-2.328.41-3.37.756-1.04.348-1.879.865-2.514 1.552-.635.688-.953 1.621-.953 2.8 0 1.611.6 2.826 1.798 3.644 1.198.819 2.72 1.228 4.568 1.228ZM1006.763 432.847V451h-4.637v-30.176h4.48v4.715h.393c.707-1.533 1.78-2.767 3.221-3.704 1.441-.936 3.301-1.404 5.58-1.404 2.043 0 3.831.416 5.363 1.247 1.533.832 2.725 2.09 3.576 3.772.851 1.683 1.277 3.808 1.277 6.375V451h-4.637v-18.86c0-2.37-.615-4.22-1.846-5.55s-2.921-1.994-5.069-1.994c-1.48 0-2.8.32-3.959.962-1.159.642-2.072 1.579-2.74 2.81-.668 1.23-1.002 2.724-1.002 4.479ZM1034.503 451v-30.176h4.637V451h-4.637Zm2.358-35.206c-.904 0-1.68-.308-2.328-.923-.649-.616-.973-1.356-.973-2.22 0-.865.324-1.605.973-2.22a3.263 3.263 0 0 1 2.328-.924c.903 0 1.68.308 2.328.924.648.615.972 1.355.972 2.22 0 .864-.324 1.604-.972 2.22a3.263 3.263 0 0 1-2.328.923ZM1060.279 451.629c-2.908 0-5.413-.645-7.515-1.935-2.102-1.29-3.72-3.098-4.852-5.423-1.133-2.325-1.7-5.032-1.7-8.123 0-3.091.567-5.819 1.7-8.183 1.132-2.364 2.717-4.21 4.754-5.54 2.037-1.33 4.417-1.994 7.141-1.994 1.572 0 3.124.262 4.656.786 1.533.523 2.928 1.371 4.185 2.544 1.257 1.172 2.26 2.72 3.006 4.646.746 1.925 1.12 4.296 1.12 7.112v1.964h-23.261v-4.007h18.546c0-1.703-.338-3.222-1.012-4.558-.675-1.336-1.63-2.39-2.869-3.163-1.237-.773-2.694-1.16-4.37-1.16-1.848 0-3.442.456-4.785 1.366a9.092 9.092 0 0 0-3.094 3.546 10.389 10.389 0 0 0-1.08 4.676v2.672c0 2.279.396 4.207 1.188 5.786.793 1.578 1.896 2.776 3.31 3.595 1.415.818 3.059 1.228 4.932 1.228 1.218 0 2.321-.174 3.31-.52a6.905 6.905 0 0 0 2.564-1.573c.72-.7 1.277-1.575 1.67-2.622l4.48 1.257a9.853 9.853 0 0 1-2.378 3.998c-1.113 1.146-2.489 2.037-4.126 2.672-1.637.635-3.477.953-5.52.953ZM1101.221 427.582l-4.165 1.179a8.045 8.045 0 0 0-1.15-2.034c-.503-.661-1.188-1.208-2.052-1.64-.865-.432-1.971-.649-3.32-.649-1.847 0-3.383.423-4.607 1.268-1.225.844-1.837 1.915-1.837 3.212 0 1.152.419 2.063 1.257 2.73.838.669 2.148 1.225 3.93 1.67l4.479 1.1c2.698.656 4.708 1.654 6.031 2.997 1.323 1.342 1.984 3.068 1.984 5.176 0 1.73-.494 3.275-1.483 4.637-.989 1.362-2.367 2.436-4.136 3.222-1.768.786-3.824 1.179-6.168 1.179-3.078 0-5.626-.668-7.643-2.004-2.017-1.336-3.294-3.288-3.83-5.855l4.4-1.1c.42 1.624 1.215 2.842 2.387 3.654 1.172.812 2.708 1.218 4.607 1.218 2.161 0 3.88-.461 5.157-1.385 1.277-.923 1.916-2.033 1.916-3.33 0-1.048-.367-1.928-1.1-2.642-.734-.714-1.86-1.248-3.38-1.601l-5.03-1.18c-2.763-.654-4.79-1.672-6.08-3.054s-1.935-3.114-1.935-5.196c0-1.703.482-3.21 1.444-4.519.963-1.31 2.28-2.338 3.95-3.084 1.67-.747 3.565-1.12 5.687-1.12 2.986 0 5.334.655 7.043 1.964 1.709 1.31 2.924 3.039 3.644 5.187Z"/></g></g><g fill-rule="nonzero"><path d="M491 284.35c0 8.649 2.607 15.583 7.817 20.812 5.216 5.223 12.262 7.838 21.15 7.838 8.888 0 14.869-2.209 19.313-6.621 4.444-4.446 6.665-9.603 6.665-15.463v-.532h-12.859v.477c0 2.363-1.015 4.396-3.042 6.09-2.031 1.694-5.422 2.543-10.18 2.543-5.352 0-9.274-1.326-11.757-3.974-2.483-2.647-3.726-6.177-3.726-10.59v-2.86c0-4.413 1.26-7.943 3.78-10.59 2.521-2.648 6.422-3.974 11.702-3.974 4.618 0 7.976.811 10.078 2.434 2.135 1.622 3.2 3.672 3.2 6.144v.532H546l-.055-.691c-.211-5.898-2.482-11.012-6.823-15.359-4.34-4.379-10.724-6.566-19.155-6.566-8.888 0-15.94 2.615-21.15 7.838-5.215 5.191-7.817 12.125-7.817 20.812v1.7ZM557.005 311h12.982v-26.38c0-5.778 2.838-8.764 5.193-10.394 2.354-1.66 5.036-2.486 8.047-2.486.935 0 1.784.052 2.542.152.796.1 1.543.22 2.231.358v-15.54c-.344-.137-.952-.29-1.817-.458a12.296 12.296 0 0 0-2.44-.252c-3.08 0-5.833.815-8.257 2.44-2.183 1.46-3.945 3.19-5.284 5.172-.14.205-.468.121-.484-.126l-1.134-6.014H557V311h.005ZM594 284.347c0 8.65 2.706 15.585 8.12 20.814 5.412 5.224 12.54 7.839 21.38 7.839s15.913-2.615 21.326-7.84c5.451-5.223 8.174-12.163 8.174-20.813v-1.694c0-8.683-2.723-15.623-8.174-20.814-5.413-5.224-12.523-7.839-21.326-7.839s-15.962 2.615-21.38 7.84c-5.414 5.19-8.12 12.124-8.12 20.813v1.694Zm13.359-2.275c0-4.835 1.399-8.365 4.192-10.59 2.794-2.226 6.775-3.34 11.949-3.34 5.174 0 9.1 1.114 11.894 3.34 2.832 2.225 4.247 5.755 4.247 10.59v2.862c0 5.015-1.4 8.595-4.192 10.75-2.761 2.115-6.742 3.178-11.95 3.178-5.206 0-9.203-1.057-11.997-3.179-2.76-2.154-4.138-5.74-4.138-10.75v-2.86h-.005ZM659.01 256.005 675.281 311h14.734l11.557-39.936a.446.446 0 0 1 .857-.011L714.892 311h14.731L746 256.005h-16.022l-8.086 30.63a249.288 249.288 0 0 0-.985 4.122c-.177.853-.474 2.209-.66 3.067-.043.19-.312.195-.355 0a139 139 0 0 0-.752-3.073 72.77 72.77 0 0 0-1.141-4.121L708.98 256h-15.343s-9.055 31.246-10.728 37.473c-.07.27-.45.265-.52 0l-9.376-37.468H659h.01ZM750 283.646c0 8.035 2.233 14.61 6.703 19.729 4.501 5.081 10.753 7.625 18.743 7.625 4.152 0 7.74-.736 10.762-2.213 2.106-1.04 4.803-3.37 6.289-4.73.607 2.496 1.42 5.92 1.42 5.92H807V231h-13.771v31.215c-1.757-2.405-4.08-4.26-6.965-5.561-2.884-1.339-6.389-2.01-10.504-2.01-7.74 0-13.97 2.559-18.686 7.672-4.713 5.082-7.074 11.64-7.074 19.676v1.654Zm13.463.517-.05-2.677c0-3.914 1.23-7.076 3.694-9.48 2.464-2.438 6.283-3.659 11.457-3.659 3.623 0 6.706.827 9.236 2.474.028.016.05.032.074.048 3.39 2.23 5.361 6.005 5.361 9.993v3.733a11.993 11.993 0 0 1-5.697 10.227c-2.71 1.648-5.844 2.474-9.395 2.474-5.21 0-8.955-1.221-11.245-3.658-2.289-2.437-3.43-5.599-3.43-9.48l-.005.005ZM819.833 311h13.33v-54.251h-13.33V311ZM817 241.927c0 2.334.821 4.257 2.46 5.765 1.681 1.476 4.031 2.21 7.067 2.21 3.035 0 5.32-.756 6.959-2.263 1.677-1.508 2.514-3.415 2.514-5.712 0-2.296-.818-4.15-2.464-5.663-1.642-1.507-3.996-2.264-7.066-2.264s-5.329.757-7.01 2.264c-1.639 1.508-2.46 3.4-2.46 5.663ZM849.006 311h13.25v-21.873c0-12.382 4.556-20.23 14.469-20.23 9.915 0 12.028 5.544 12.028 13.33V311H902v-31.978c0-9.173-1.95-15.3-5.856-18.367-3.903-3.103-8.882-4.655-14.952-4.655-4.003 0-7.71.715-11.12 2.15-3.062 1.271-5.558 3.082-7.48 5.423-.16-.831-1.033-6.498-1.033-6.498H849V311h.006ZM428.75 337h-47.5c-20.188 0-33.25-13.063-33.25-33.25v-47.864C348 236.062 361.062 223 380.886 223h47.864c20.187 0 33.25 13.062 33.25 33.25v47.5c0 20.187-13.063 33.25-33.25 33.25Z" fill="#263238"/><path d="M422.225 300.994c-2.178 0-4.119-.674-5.725-1.994-1.92-1.554-3.446-3.872-3.5-6.596-.027-1.376 1.424-1.376 1.424-1.376s2.356-.028 3.499-.028c1.143.028 1.477 1.671 1.531 2.083.442 3.694 2.464 5.304 4.017 6.04.933.44.7 1.816-1.246 1.877v-.006ZM402.3 281.97c-1.894-.23-4.703-.426-6.518-.886-2.942-.743-2.862-3.461-2.735-4.347.357-2.658 1.304-5.118 2.762-7.404 1.814-2.8 4.422-5.26 7.774-7.261 6.289-3.746 15.927-6.072 25.59-6.072 1.79 0 14.827 0 14.827 2.67 0 1.484-3.01 1.346-4.32 1.346-9.844 0-16.852 1.372-22.066 4.347-5.14 2.914-8.721 7.376-11.148 13.982-.255.574-1.1 3.975-4.166 3.63v-.005ZM411.14 309.997c-4.908.1-9.532-2.077-13.034-5.873-2.967-3.215-4.752-6.456-5.084-10.614-.203-2.716 1.021-3.655 2.684-3.492 1.15.11 4.726.278 6.773.692 1.534.304 2.556 1.138 2.812 2.853 1.353 9.145 7.233 12.742 10.735 13.518.615.136.995.524.973 1.222-.027.666-.417 1.578-5.854 1.688l-.005.006ZM396.951 317.98c-3.57.151-7.062-.584-8.06-.764-4.2-.763-7.721-2.082-10.737-4.04-7.221-4.68-11.58-12.946-12.102-22.733-.131-2.323-.422-6.762 4.99-6.425 2.232.123 5.774 1.223 8.27 1.958 3.097.887 4.594 3.334 4.594 5.752 0 13.8 11.694 22.618 17.244 22.618 1.272 0 1.85.407 1.85 1.218 0 .609-.576 2.186-6.043 2.421l-.006-.005Z" fill="#FFF"/><path d="M379.83 277.86c-2.041-.371-4.035-1.226-5.975-1.716-6.001-1.512-4.978-7.656-4.416-9.34 5.46-16.313 22.796-21.768 36.787-23.226 13.174-1.372 26.957-.313 39.798 3.314.917.247 3.446.866 2.9 2.372-.546 1.507-2.068.458-16.074.146a78.497 78.497 0 0 0-13.858.914c-7.942 1.227-16.106 3.772-22.67 9.141-3.164 2.599-5.948 5.913-7.809 9.83a24.638 24.638 0 0 0-1.197 3.083c-.335 1.086-1.586 6.542-7.48 5.487l-.006-.005ZM412.11 280.927c1.164-5.192 5.363-12.927 21.42-12.927 1.853 0 2.47.594 2.47 1.188 0 .593-.864 1.187-1.853 1.187-9.757 0-12.856 5.759-15.107 11.658-.725 1.899-2.378 2.183-4.448 1.844-1.45-.257-3.026-.427-2.482-2.95Z" fill="#FFF"/></g></g></svg>